PathFileType	3	(X/Y/Z)	results
DataRate	CameraRate	NumFrames	NumMarkers	Units	OrigDataRate	OrigDataStartFrame	OrigNumFrames
30.0	30.0	4	85	mm	30.0	130	173
Frame#	Time	head			nose			neck			shoulder_r			elbow_r			wrist_r			shoulder_l			elbow_l			wrist_l			hip_r			knee_r			ankle_r			hip_l			knee_l			ankle_l			heel_r			heel_l			mtoe_r			ltoe_r			mtoe_l			ltoe_l			asis_l			asis_r			psi_r			psi_l			mhnd_r			lhnd_r			mhnd_l			lhnd_l			l_lat_knee			r_med_wrist			l_lat_ankle			r_med_ankle			r_lat_knee			xiphoid			l_med_ankle			r_med_knee			l_med_elbow			navel			r_lat_elbow			r_lat_wrist			l_med_wrist			l_lat_elbow			l_med_knee			r_med_elbow			r_lat_ankle			l_lat_wrist			chin			T10			r_eye			l_eye			l_ear			r_ear			spinal_cord_8			spinal_cord_12			spinal_cord_27			spinal_cord_33			up_arm_r_0			up_arm_r_5			up_arm_l_0			up_arm_l_5			front_torso_11			front_torso_7			front_torso_4			front_torso_1			front_torso_10			thigh_r_2			thigh_r_3			thigh_l_1			thigh_l_5			shank_l_0			shank_l_4			shank_r_1			shank_r_2			foot_r_1			foot_r_3			foot_r_5			foot_r_6			foot_r_7			foot_l_1			foot_l_7			foot_l_0			foot_l_4			foot_l_5			foot_l_6			
		X1	Y1	Z1	X2	Y2	Z2	X3	Y3	Z3	X4	Y4	Z4	X5	Y5	Z5	X6	Y6	Z6	X7	Y7	Z7	X8	Y8	Z8	X9	Y9	Z9	X10	Y10	Z10	X11	Y11	Z11	X12	Y12	Z12	X13	Y13	Z13	X14	Y14	Z14	X15	Y15	Z15	X16	Y16	Z16	X17	Y17	Z17	X18	Y18	Z18	X19	Y19	Z19	X20	Y20	Z20	X21	Y21	Z21	X22	Y22	Z22	X23	Y23	Z23	X24	Y24	Z24	X25	Y25	Z25	X26	Y26	Z26	X27	Y27	Z27	X28	Y28	Z28	X29	Y29	Z29	X30	Y30	Z30	X31	Y31	Z31	X32	Y32	Z32	X33	Y33	Z33	X34	Y34	Z34	X35	Y35	Z35	X36	Y36	Z36	X37	Y37	Z37	X38	Y38	Z38	X39	Y39	Z39	X40	Y40	Z40	X41	Y41	Z41	X42	Y42	Z42	X43	Y43	Z43	X44	Y44	Z44	X45	Y45	Z45	X46	Y46	Z46	X47	Y47	Z47	X48	Y48	Z48	X49	Y49	Z49	X50	Y50	Z50	X51	Y51	Z51	X52	Y52	Z52	X53	Y53	Z53	X54	Y54	Z54	X55	Y55	Z55	X56	Y56	Z56	X57	Y57	Z57	X58	Y58	Z58	X59	Y59	Z59	X60	Y60	Z60	X61	Y61	Z61	X62	Y62	Z62	X63	Y63	Z63	X64	Y64	Z64	X65	Y65	Z65	X66	Y66	Z66	X67	Y67	Z67	X68	Y68	Z68	X69	Y69	Z69	X70	Y70	Z70	X71	Y71	Z71	X72	Y72	Z72	X73	Y73	Z73	X74	Y74	Z74	X75	Y75	Z75	X76	Y76	Z76	X77	Y77	Z77	X78	Y78	Z78	X79	Y79	Z79	X80	Y80	Z80	X81	Y81	Z81	X82	Y82	Z82	X83	Y83	Z83	X84	Y84	Z84	X85	Y85	Z85	
130	4.333333333333333	-68.06097372977939	1606.709302898511	-209.1876011690991	-66.9582553439411	1428.1437127406373	-281.19750888697627	-148.4324007595117	1330.7932558616183	-162.8309153796672	-54.14943134122431	1292.1145267040552	-145.0304829503842	177.59487373599885	1417.5044666878662	-181.67001302071426	11.15706677149872	1561.7274016665954	-226.63376126426337	-230.21012257993942	1274.0639532554605	-156.68565740959866	-414.7675728904625	1474.0975632030015	-153.3384145852771	-237.45634885730243	1603.042863866047	-258.0218863318231	-54.55411147034074	827.2298011487883	-146.87489615275135	-92.79868621605256	457.3098957637663	-226.20121058972177	-96.15180895946834	112.03362740302292	-19.810272995242656	-221.67121404987734	825.8268754965453	-91.78839378705976	-221.89609533058572	459.82777327655566	-227.29102644641762	-228.1118548879944	99.0226138649975	-54.99194889447695	-103.43794712309159	65.41415912875335	19.304298440101537	-233.71688704287308	37.967994095215055	-11.506694618293425	-103.34509167756777	-20.69419004239388	-191.98918230571505	-41.83772007681978	-20.729197216420427	-125.75561645466344	-198.48697718030368	22.541786745860918	-224.81527036017135	-275.96277079802036	-2.5053277055652226	-178.34184634381617	-277.58246560855054	868.1036563101062	-135.44202090235837	-31.579725189654155	868.4868290276486	-212.17429369791637	-73.2354882909998	922.1114725645053	-60.386756336709006	-158.36811812860626	919.507168458453	-38.343704566033644	-18.023088659502168	1623.615211953119	-253.09326317614233	-63.631393108210226	1605.7367652094579	-231.43025410319805	-205.45832899329312	1663.0267342791817	-292.5570686216693	-161.4657317886258	1632.6969152344088	-291.849402311417	-268.15092823576714	464.3302412426492	-239.79978042288397	35.662835790508744	1575.496950344369	-229.7320211772348	-282.031696081786	89.93868750754814	-40.07465172652899	-129.4406634318296	93.90559050051029	-31.577788003553042	-52.400299032391814	446.1746701735587	-224.5953367491546	-105.46751914306671	1157.2102395191398	-243.2657821891739	-198.7478349996872	80.58257465526675	-65.19502452007251	-133.4188518703792	458.9985634169594	-226.40305664919163	-428.74913833236997	1449.3084022562973	-177.64570570651932	-87.93403702014088	936.3267313969639	-245.038797860744	169.50843598487907	1429.4788694430288	-143.64897626333527	-3.4400386915675596	1534.2074149273844	-225.18104305449066	-260.34501000068724	1624.7945170966702	-245.96196814138216	-392.5622266165172	1478.539707362964	-118.65325684536413	-174.22819061047824	464.13623265620015	-225.72219017788697	174.77401366493734	1400.0531745095013	-214.73487453586847	-47.582583420123555	97.77283215537629	-6.07387151866054	-223.28396696876644	1574.6598181190977	-250.81027050927378	-83.89126493743088	1366.345012371292	-251.14875437101614	-166.88342786311523	1175.5661510827454	-56.27660541892389	-33.81376466748478	1452.4447281686266	-277.0637359137618	-92.79215907191072	1459.0784552909124	-296.6699892443444	-164.2789011414923	1482.2244939777668	-225.04732541697103	-19.151267426158885	1463.6220722660998	-173.6969913077496	-167.93277980739833	1392.0255788578902	-119.55997448104118	-176.34119235506935	1275.970389280593	-63.15571503692849	-139.39485293906716	1023.6929250796263	-58.57720121942375	-162.2702190487898	1165.4050023860789	-68.2202633082411	37.68436788973328	1395.1862986055255	-165.4566638749423	103.59516477072412	1336.845333995538	-147.37084973795808	-258.09926483257004	1322.5540708916994	-128.3199497213503	-392.31119127494384	1391.9272353813294	-172.61434576687617	-54.89620921304601	969.9480202646599	-193.70813772333824	-88.73119105878949	1068.815566897075	-267.02962595016874	-170.17120840940797	1196.8264081896336	-271.80375326686857	-171.18653073108504	993.2693928738528	-236.65022544007834	-29.18844902062731	1250.6091334246744	-236.69016671830437	-92.43493192744653	629.342673553	-188.93946608855424	-3.4835737427439257	585.4414151900039	-194.02396857008833	-178.06367066712008	562.2252755524978	-170.2671810416128	-309.3839690679896	743.5713568413188	-173.76410311065038	-296.7429206235934	186.06118550410227	-99.57013474064752	-175.23188359053572	315.40505664491997	-169.39745942982904	-34.71205411466539	314.714138194318	-127.69494669485523	-134.7008391144465	271.24597112231874	-128.94565586640672	-83.22400464731214	-26.964274387156024	-169.63701162752602	-59.61188087948317	-25.691900534697165	-151.4646078048496	-113.9794987968328	21.49386603434241	-118.7031569132977	-76.5213338092205	22.743470815366766	-103.85453911992666	-50.46763928401456	6.630572826990207	-84.22617816831686	-244.641782747576	2.3386202357746666	-203.89093088326894	-279.670764181559	34.32626182771637	-108.91454714046907	-259.3547594794839	-0.24645812884076593	-197.8583593962181	-226.63508201770892	5.532863493188067	-210.68688250644064	-242.89207943697176	23.031428493152273	-157.51183181058826	-220.33723221627343	42.82762630815631	-127.54754476170666	
131	4.366666666666666	-66.79355831505099	1604.332306237744	-215.19419491766408	-63.25210278980156	1423.87698973765	-282.24380062432687	-143.77908141296035	1327.7408935793899	-160.06799897546156	-46.09610688705477	1288.7434594434105	-131.16859996429818	182.9429338187817	1408.1513069477844	-194.83490923039108	26.805712659838555	1558.3509402760992	-254.70790426106632	-231.86103306670188	1283.958620694158	-152.24522113711657	-433.26762232353025	1463.5372151095091	-187.92456866519385	-239.66915084293942	1592.9362518006997	-257.20884633265155	-52.36018002908377	822.0297953055571	-134.510465980877	-94.4338330860511	454.12291613342165	-221.56597728154674	-90.28309515854086	110.13714072466257	-13.045662354025906	-220.86614487871145	824.5646317702848	-83.87518843603168	-216.6509114477964	458.36431994295737	-218.4246203728479	-231.31240486168008	97.26085805735524	-47.26591835850988	-95.96505238940311	62.206898050268386	26.135413913000956	-238.87795166526809	35.788475394325474	-4.389644605446157	-101.68501274420387	-11.254966447005271	-189.8049203067099	-37.704001349013296	-13.42244519254475	-125.99445526517886	-196.14299745710647	23.30958395296278	-216.51617256543375	-275.31110576792673	-2.0903123911049892	-173.19306590122238	-275.26261607097797	864.9900824525746	-131.05400005840423	-27.34334886092024	859.7974183607461	-201.15685298870753	-72.50437180504338	921.2587883176691	-53.39608856916042	-158.20291836358896	920.3609840226862	-33.516544824167134	1.7853842455436661	1618.7713991480375	-287.95003250532966	-44.59902532315987	1607.039547551987	-263.86907609082147	-201.96382970437026	1652.3060414787633	-286.67329325042095	-158.6565381269967	1623.2754043212663	-274.9494744967233	-262.81756256121344	462.3407407057023	-231.46069679650054	52.19959390613123	1569.7711554384775	-259.65379966889094	-285.7243459349144	88.67051269624892	-33.92652622663498	-124.05123724269342	92.01374091617653	-23.365687695950516	-54.018445632361804	442.9741871342981	-221.47146129585738	-100.30133468883318	1153.6218994853552	-239.05580720562799	-201.8470785441819	78.5577378458125	-56.66651949007912	-135.01585595318483	455.97462432207783	-220.01058917150905	-439.7581187396357	1437.3975649565452	-213.9134743838643	-83.67828305334403	932.6615189084605	-239.58031642723446	176.69008757217603	1424.8504452339132	-158.27787533445536	10.24261604198734	1532.3716563412688	-249.8833643986085	-265.04009519248905	1614.5207461217522	-251.47372282233192	-418.62499447874404	1470.3134267736984	-149.77294195534637	-169.02872754202923	463.0059843980819	-216.53056933420135	178.57367357774694	1386.6621775188214	-225.24735402825112	-41.235211435089255	95.84925618345719	-1.1633168910778757	-226.91279263408674	1565.285222740511	-245.75646604731438	-79.33258479670846	1362.7060175005986	-250.4906262445401	-164.54635293310653	1173.0707253168523	-53.1307514250121	-30.44333944751855	1448.7347428194946	-278.7996967206564	-89.50958832625761	1454.0155599525172	-298.5520060925344	-161.29792997037816	1478.1503124450437	-227.56012558175573	-15.92248425156184	1462.9638772975154	-175.78861851421206	-163.69203383478393	1389.2470974007106	-117.37727742944186	-173.4702816693825	1273.4816932319486	-60.59958832745986	-137.66891858709573	1021.0754884400304	-54.331900342235926	-159.79060993611355	1162.837059642274	-64.95600396290267	44.11554895836378	1388.2687683197441	-168.99763317903233	111.12155306280482	1332.5871010324302	-146.98070078214664	-269.4610659469633	1329.2809812253636	-130.6621189527321	-399.23495334524694	1384.1584603604178	-200.90933316821264	-51.30249849063127	966.3743589625882	-187.88912964542624	-83.57123411682065	1065.0527240822094	-262.16528576444995	-164.3838803647283	1193.3791688793494	-268.7746713842235	-166.80943951985216	989.9876081627381	-232.74344084180504	-23.73903406274051	1246.7306211908653	-231.7026646429037	-92.25670014443683	625.2881218786704	-179.94923236348004	-3.662730102229256	581.373796618549	-189.33844337139806	-174.2307591271345	561.1818061790432	-161.34111230750696	-307.10290039629604	741.3553933418023	-166.45217856745853	-297.78711626296337	185.0618113228847	-93.582828230562	-173.07153534017726	313.3671520361595	-159.570613580067	-32.7673573314149	312.0046293150238	-124.55706402086582	-132.81620471049905	268.7608147468255	-121.5564661685212	-80.56206096895083	-18.249547711978906	-168.62265470020643	-56.312667625753434	-17.37087234592942	-151.2853412742425	-110.61931244946513	26.21459722875313	-113.77877812617432	-72.66580217407525	27.66557927675087	-100.26645798513925	-45.45946982669767	11.180985309165864	-82.60954218505826	-243.08453259989003	2.994797572147798	-197.5408272649575	-281.3528327705589	33.74658050633045	-103.40997540334473	-258.0118242952611	0.38293662797007566	-192.07270343124372	-224.83630075702388	6.213310884946248	-203.64595840944256	-242.91052947406587	23.00624151853333	-150.8312303908875	-221.36435596134748	42.27367580105623	-119.79902997654249	
132	4.4	-71.12328216171832	1606.0559454427287	-214.3559910632673	-62.15365118679362	1426.6895118610917	-283.77890522122476	-139.52338874675837	1332.3572743839593	-156.52093753703517	-32.89027509300191	1297.2448732799107	-128.0090932659529	206.47140542608446	1390.549903525469	-197.0791474037459	67.49351940754616	1548.3464694836011	-276.5079091137159	-256.33464583561886	1316.0038585308132	-171.4997530647419	-474.4017774066247	1453.2345720647058	-259.25258207705053	-271.56881978611483	1584.9523602622262	-282.36114246925325	-53.26649815810176	822.7276308462772	-120.09493929750606	-99.27696707156792	457.8767166370411	-217.63766684546138	-88.53438998200217	109.7616700495489	-16.33025162375748	-226.31790379672933	831.424151603781	-89.39968801884909	-212.61716358353038	460.26091580112217	-205.05281597317452	-235.00185371953282	95.07095025292817	-43.68000054086857	-93.29622504211123	59.73335263802269	21.525580612789746	-244.52694179950052	32.315545136679404	-2.9160060674063675	-89.89128546828107	2.026404743800975	-199.19575042711872	-26.348985761227475	2.2624431022158635	-134.91228703323605	-192.69854151071988	26.80794458266983	-213.30409072711777	-273.7859568424398	0.43041192445674414	-174.33368497444616	-273.96111401375725	869.9255469104447	-144.77838867887473	-19.890831684672065	855.9355603590195	-185.4958139022381	-79.98874457667392	927.0264666518203	-47.71125235529314	-167.38670261419855	928.9122775802584	-37.79743158216719	49.41360074739783	1607.3037698962432	-316.2425419138148	1.4969974430773525	1602.4985500123767	-292.79150261082214	-228.291529363143	1643.6376923797504	-304.6708876191158	-189.35522633130014	1617.061461018714	-279.503139277943	-260.2214430235649	459.47358696211165	-212.89413514986157	94.00819727974888	1556.7406299984234	-281.6306356412299	-289.9626840337203	86.21044553324414	-33.04085891592157	-122.68246869659545	91.89720550535374	-25.81801164089792	-58.903441211542926	446.6966952141807	-219.1761128761862	-100.29879281540765	1158.6051447439245	-238.4870337787508	-205.13806769072752	76.57476877059926	-52.190524430584276	-139.76928856941694	459.7777678303044	-214.55807612648397	-470.44534174025387	1425.6331575155823	-284.219352112561	-87.22010633374485	937.4355040869614	-242.09657001905182	200.99880435695817	1411.2612667654503	-162.50363434563943	48.3308541081332	1524.6747682097962	-269.8013179043421	-297.9214880728361	1605.9067412604077	-285.34738511096725	-469.64065020873596	1463.7046468774863	-219.45836872200798	-165.5957409295201	467.297954440355	-210.7840151909478	200.84953490833044	1366.5706306812974	-225.3489009045794	-39.129838212567485	95.16842696824985	-6.468395969558671	-261.9543829209236	1558.5988869025646	-265.88333488793944	-77.62659878411124	1364.7441333599634	-253.24872664008325	-160.78034489548827	1176.671476626193	-51.16539842191255	-29.977112982024877	1452.1891025755906	-279.23732459579924	-88.67848389958951	1456.4908396662927	-300.27316596525554	-162.57047912881183	1478.0778805016896	-230.63214298769822	-18.117641706220738	1465.2569804665602	-175.73278727808153	-157.65947202179632	1393.615497543279	-112.69686803650495	-168.23553504467083	1277.298155530358	-57.20478075535871	-136.3611485003476	1024.300048759356	-54.77678129050829	-156.40788351033913	1166.5170594440044	-63.204958019457564	66.02799095698033	1384.7813458470125	-173.03140244081888	127.71307200433642	1326.2655744379101	-143.94784621591225	-305.14813759024264	1353.9817852913	-161.077217945334	-424.7437087874313	1381.389893722815	-259.7340251810275	-53.36080848833842	969.9674774867253	-190.59953653544937	-85.41530625415906	1070.0879632807812	-263.015252417812	-164.27597238575248	1199.7447296468386	-266.502726993008	-169.2844607294322	995.9702460049509	-232.98952447000076	-22.136162800343694	1250.3951612855424	-231.39585808216745	-95.2159448078266	627.630713438824	-170.50462700126602	-7.110654471348149	583.8966872099148	-184.29989933552716	-170.79928377258634	567.8467462738755	-160.0465252591369	-316.21089401320194	738.0805882845392	-155.6246391930205	-299.3129072204943	184.0524951987405	-90.79182333481555	-171.7415563670771	313.8153735982663	-147.86870330117446	-34.54283130586665	313.74933569448035	-125.7253136957483	-134.5159818329718	270.5953476339203	-120.07682399341942	-68.21928638116012	-4.128204080739842	-178.30946591356394	-44.2935761531955	-1.8542690423539039	-160.6522522525474	-103.25442714374178	32.643658655549935	-120.78800581221978	-65.75498881680008	37.27083142831088	-106.73316735649658	-36.97171125907602	22.635183112706866	-89.96970216995982	-240.51150392457663	6.145232553285166	-197.0795736824262	-282.680252868925	33.90609845048927	-103.68855076864509	-255.6736148489272	3.4397039567733207	-192.35339758092618	-222.00120424312252	9.458500660115833	-202.27769639952655	-242.26924457011526	24.552861088370765	-149.74729964469813	-221.99923399066031	42.62056358309038	-117.17194274567593	
133	4.433333333333334	-82.60586307759618	1610.5679322383196	-208.6416891169477	-64.3756864963413	1434.37127053978	-284.1049904886211	-136.59513708833848	1341.0054559709718	-152.84727633997153	-14.57803627079902	1308.0426707220722	-134.90462951475146	238.12182900999622	1361.8897913874296	-198.25903608415916	121.72778266263538	1530.440491385026	-290.81509867515797	-277.9142983864304	1341.9443176177883	-202.79613482567638	-512.8676104339808	1427.5350312885216	-310.3008905321668	-318.90534067932384	1573.3386636491941	-322.33121430944146	-58.97326279190772	828.4193758643446	-110.96806314649075	-102.63264588089604	464.49988643980333	-212.71818359517488	-90.13906423238382	109.62060551596097	-23.6976280067705	-234.35087657804593	841.2785195101818	-104.49103255938776	-217.60951698271285	463.46450831740924	-190.44355820006237	-235.02055674599887	92.29075708026625	-42.68404772092757	-94.94080020775286	58.33541421764703	12.808725175179884	-243.82568418914428	27.525482019498963	-4.679760033112986	-78.57033068682439	9.775194728341763	-209.52774109972418	-17.053127016870686	17.252809030258575	-143.72681276993902	-192.01199925265107	33.42267987168175	-215.0609094213898	-273.0768897985779	4.920715494238155	-177.56748031380312	-273.1161587485188	879.0123820806235	-166.88047013415095	-16.25096558942582	859.0405301377469	-172.05100943135866	-92.93602886591268	935.3018447064667	-45.742361814806955	-180.80410612776606	939.1259030671863	-47.93798707135066	112.03916498598676	1588.6327957393441	-334.4209947892494	63.382266882372775	1591.2083219243796	-312.17430545013303	-277.8834047282871	1633.700457630867	-344.4280783152975	-240.0490938791814	1612.0906444406028	-313.4873572480282	-265.196204556598	460.67014070876337	-199.00758512880793	149.19069428438962	1535.176602363302	-295.6203186022937	-289.9319134899556	82.01963225725922	-33.1111880313544	-125.56525927252798	93.32561331148837	-31.09397153080681	-62.202185571701705	453.5281714945956	-214.3812034186409	-104.46298202981036	1168.327795948836	-240.00668635464416	-204.70049954359004	74.67987519547387	-51.45527527250082	-143.15345150294934	466.0992609284243	-209.84399638214995	-502.39493501020684	1399.4281143440853	-332.6873901166846	-96.63586173074195	947.0607326444842	-248.93493505065365	234.45295588857047	1385.2531287987192	-165.16719618401677	99.6168636992029	1509.763574349481	-283.3245771498606	-346.24390912241483	1591.8537269691012	-329.56045767955743	-512.3642310290178	1441.6740403549356	-271.3688311579074	-170.6425503051726	469.51908651325687	-198.0078575071314	230.11820508907587	1337.2652728021692	-225.3766503934624	-40.72913209600182	92.93650317852308	-18.100484843967727	-309.22221951568156	1549.0058568464008	-303.02803388060806	-78.0743986282131	1370.775320196662	-256.2368327619692	-157.5121154822498	1183.4811791466682	-50.19106534293462	-33.41478001172571	1460.9677971889141	-277.7621416113464	-91.66502527278993	1463.659249009099	-300.2683080073687	-168.20975546364474	1479.678183754685	-232.0026696380465	-24.85764768936903	1470.708533882863	-173.5676154981836	-151.67219532287405	1401.6420861784216	-107.04424280658225	-162.86184787957419	1284.3599220259441	-53.74663910618492	-136.76741736357923	1030.7253181794672	-58.04572696015816	-153.8253958957909	1173.507729720636	-62.60557328383109	97.54304845959882	1377.6683372823895	-180.2432954211692	149.00691884087547	1312.8619136258858	-145.22051043280126	-333.5307659105697	1370.4544163391506	-197.53382091889964	-450.55794637213353	1366.7987383928962	-302.7894417839448	-60.14533983216813	977.6547182097424	-198.0509920009976	-92.54790178581413	1080.0806037857026	-267.0049647091183	-168.46995269573773	1211.505571773382	-264.68889450245746	-176.93236938042506	1007.1851553495519	-235.46878467031766	-23.993064392252737	1258.1715711209022	-233.86038188952492	-99.67535362604418	633.6823751839487	-163.73680615058834	-11.285433190357866	590.6072976831573	-177.78231923898682	-176.5918749538435	573.6011243356159	-155.0780983551093	-323.63428890504815	742.3047686852013	-162.90493152268837	-300.4256069524386	181.7049502912897	-87.41023971432503	-174.65674752316784	315.82844830132916	-138.04328895295126	-36.74427541172352	315.1160508995354	-130.53373708364146	-137.5914915544616	275.41637420279886	-118.59315023885294	-56.626352125100816	6.202796385513753	-188.32652863535748	-33.666428730047365	11.412677255877236	-170.02115664372573	-97.92673319763219	35.1935560116964	-130.51507882563925	-61.83747869547584	44.89949833079669	-115.39828419521436	-31.50328627908175	34.16596806864855	-98.4182626345689	-239.80859091695856	11.87942919267658	-199.97329291020313	-281.9890799140918	34.526879779286816	-105.21754609943619	-254.9683249560854	8.91167144173662	-195.39933280916182	-221.30114967062048	15.481950703946547	-204.98586479509393	-241.57541863869847	27.703391192669255	-151.7161156982097	-221.31556564498328	44.00065558501489	-118.21377832562311	
